HIERARCHY
ROOT Hips
{
	OFFSET -0.001795 -0.223333 0.028219
	CHANNELS 6 Xposition Yposition Zposition Zrotation Yrotation Xrotation 
	JOINT LeftUpLeg
	{
		OFFSET 0.069520 -0.091406 -0.006815
		CHANNELS 3 Zrotation Yrotation Xrotation
		JOINT LeftLeg
		{
			OFFSET 0.034277 -0.375199 -0.004496
			CHANNELS 3 Zrotation Yrotation Xrotation
			JOINT LeftFoot
			{
				OFFSET -0.013596 -0.397961 -0.043693
				CHANNELS 3 Zrotation Yrotation Xrotation
				JOINT LeftToe
				{
					OFFSET 0.026358 -0.055791 0.119288
					CHANNELS 3 Zrotation Yrotation Xrotation
					End Site
					{
						OFFSET 0.000000 0.000000 0.000000
					}
				}
			}
		}
	}
	JOINT RightUpLeg
	{
		OFFSET -0.067670 -0.090522 -0.004320
		CHANNELS 3 Zrotation Yrotation Xrotation
		JOINT RightLeg
		{
			OFFSET -0.038290 -0.382569 -0.008850
			CHANNELS 3 Zrotation Yrotation Xrotation
			JOINT RightFoot
			{
				OFFSET 0.015774 -0.398415 -0.042312
				CHANNELS 3 Zrotation Yrotation Xrotation
				JOINT RightToe
				{
					OFFSET -0.025372 -0.048144 0.123348
					CHANNELS 3 Zrotation Yrotation Xrotation
					End Site
					{
						OFFSET 0.000000 0.000000 0.000000
					}
				}
			}
		}
	}
	JOINT Spine
	{
		OFFSET -0.002533 0.108963 -0.026696
		CHANNELS 3 Zrotation Yrotation Xrotation
		JOINT Spine1
		{
			OFFSET 0.005487 0.135180 0.001092
			CHANNELS 3 Zrotation Yrotation Xrotation
			JOINT Spine2
			{
				OFFSET 0.001457 0.052922 0.025425
				CHANNELS 3 Zrotation Yrotation Xrotation
				JOINT Neck
				{
					OFFSET -0.002778 0.213870 -0.042857
					CHANNELS 3 Zrotation Yrotation Xrotation
					JOINT Head
					{
						OFFSET 0.005152 0.064970 0.051349
						CHANNELS 3 Zrotation Yrotation Xrotation
						End Site
						{
							OFFSET 0.000000 0.000000 0.000000
						}
					}
				}
				JOINT LeftShoulder
				{
					OFFSET 0.078845 0.121749 -0.034090
					CHANNELS 3 Zrotation Yrotation Xrotation
					JOINT LeftArm
					{
						OFFSET 0.090977 0.030469 -0.008868
						CHANNELS 3 Zrotation Yrotation Xrotation
						JOINT LeftForeArm
						{
							OFFSET 0.259612 -0.012772 -0.027456
							CHANNELS 3 Zrotation Yrotation Xrotation
							JOINT LeftHand
							{
								OFFSET 0.249234 0.008986 -0.001171
								CHANNELS 3 Zrotation Yrotation Xrotation
								End Site
								{
									OFFSET 0.000000 0.000000 0.000000
								}
							}
						}
					}
				}
				JOINT RightShoulder
				{
					OFFSET -0.081759 0.118833 -0.038615
					CHANNELS 3 Zrotation Yrotation Xrotation
					JOINT RightArm
					{
						OFFSET -0.096012 0.032551 -0.009143
						CHANNELS 3 Zrotation Yrotation Xrotation
						JOINT RightForeArm
						{
							OFFSET -0.253742 -0.013329 -0.021401
							CHANNELS 3 Zrotation Yrotation Xrotation
							JOINT RightHand
							{
								OFFSET -0.255298 0.007772 -0.005559
								CHANNELS 3 Zrotation Yrotation Xrotation
								End Site
								{
									OFFSET 0.000000 0.000000 0.000000
								}
							}
						}
					}
				}
			}
		}
	}
}
MOTION
Frames: 7
Frame Time: 0.050000
0.001086 0.938392 -0.054454 1.495505 6.202475 10.782858 8.203089 -0.728153 -12.675121 -2.436916 0.058485 8.645893 2.771326 8.139854 6.306075 0.000000 0.000000 0.000000 -6.531090 0.768496 -14.076472 -5.639746 1.004166 4.625591 0.387744 -1.720594 7.127656 0.000000 0.000000 0.000000 5.330133 0.102102 -4.436905 0.565887 -0.025054 -5.168123 -12.375231 1.887072 2.716082 12.526621 -5.917109 -14.703959 0.000000 0.000000 0.000000 -11.162647 -8.069474 1.267737 -30.234426 -40.424332 6.018559 70.608048 -60.814246 -44.268680 0.000000 0.000000 0.000000 7.702348 -4.790592 -2.096951 40.167004 33.328011 7.418912 -69.958309 52.680953 -30.952575 0.000000 0.000000 0.000000 
0.001597 0.938453 -0.053762 1.512912 6.234574 10.936247 7.960693 -0.745224 -12.692304 -2.292971 0.044721 8.199155 2.978462 8.412862 5.974813 0.000000 0.000000 0.000000 -6.292309 0.786057 -13.837033 -6.045235 1.004978 3.938516 0.334470 -1.850464 7.182919 0.000000 0.000000 0.000000 5.449469 0.070714 -4.118183 0.447139 0.009356 -4.844722 -12.244697 1.914953 2.356985 12.559156 -5.704449 -15.552047 0.000000 0.000000 0.000000 -11.395423 -8.866829 1.576912 -29.745116 -41.416995 6.151817 71.579731 -60.933353 -45.055429 0.000000 0.000000 0.000000 7.865736 -4.416460 -1.938324 39.670537 33.555856 7.386269 -70.222696 50.926011 -29.814375 0.000000 0.000000 0.000000 
0.002037 0.938738 -0.053293 1.543286 6.265293 11.036089 7.899552 -0.750561 -12.686541 -2.260230 0.046277 7.898126 2.886654 8.306198 6.153653 0.000000 0.000000 0.000000 -6.141923 0.794410 -13.662917 -6.167565 0.981351 3.468168 0.157549 -2.271514 7.309387 0.000000 0.000000 0.000000 5.406413 0.052288 -3.905087 0.648227 -0.082731 -4.650974 -12.381551 1.980665 1.945694 12.683733 -5.641739 -15.982896 0.000000 0.000000 0.000000 -11.330365 -9.633023 1.884419 -29.466559 -42.496754 6.350945 70.159469 -60.355678 -43.572031 0.000000 0.000000 0.000000 8.282318 -4.125602 -1.815231 39.081161 33.726987 7.302174 -69.615396 49.678277 -28.538577 0.000000 0.000000 0.000000 
0.002343 0.938959 -0.053567 1.534252 6.497537 11.289477 7.776393 -0.783675 -13.161784 -2.223874 0.034049 8.018237 2.987288 8.405615 5.832267 0.000000 0.000000 0.000000 -6.010799 0.801945 -13.556099 -6.257345 0.953093 3.005285 0.040065 -2.436106 7.106148 0.000000 0.000000 0.000000 5.503229 0.019341 -3.611231 0.617853 -0.078145 -4.442854 -12.228526 2.082350 1.625527 12.691836 -5.463495 -16.578008 0.000000 0.000000 0.000000 -11.372991 -10.247879 2.107599 -29.337848 -44.104527 6.706992 68.603522 -60.551089 -42.594160 0.000000 0.000000 0.000000 8.439345 -3.683899 -1.606682 38.572351 33.681552 7.171972 -70.011305 48.806812 -28.059658 0.000000 0.000000 0.000000 
0.002534 0.939139 -0.054780 1.549294 6.530759 11.554125 7.610024 -0.822897 -13.842567 -2.037866 -0.009395 8.472093 2.824019 8.018265 5.517435 0.000000 0.000000 0.000000 -5.877452 0.820486 -13.672508 -6.321230 0.928901 2.644928 -0.051979 -2.669952 7.230260 0.000000 0.000000 0.000000 5.497325 -0.012892 -3.282469 0.650345 -0.086269 -4.556197 -12.134252 2.221308 1.581233 12.674300 -5.301372 -17.122830 0.000000 0.000000 0.000000 -11.055670 -10.768336 2.343139 -29.476942 -45.604409 7.085959 67.346663 -59.862573 -41.165582 0.000000 0.000000 0.000000 8.364803 -3.449071 -1.484438 39.212405 34.099643 7.510562 -71.302148 48.685478 -28.590383 0.000000 0.000000 0.000000 
0.002634 0.939286 -0.056442 1.423153 6.499302 11.745960 7.690213 -0.843970 -14.485764 -1.980170 -0.037310 9.125691 2.921779 8.180275 5.447201 0.000000 0.000000 0.000000 -5.474175 0.868887 -13.938188 -6.547754 0.931565 2.364567 -0.043120 -2.749683 7.538842 0.000000 0.000000 0.000000 5.400101 -0.039286 -2.970321 0.892052 -0.186974 -4.564943 -11.849788 2.278575 1.579999 12.684837 -5.148695 -17.777490 0.000000 0.000000 0.000000 -11.288792 -11.048819 2.446159 -29.556634 -46.608568 7.362399 66.361377 -59.150909 -39.878237 0.000000 0.000000 0.000000 8.724206 -2.929121 -1.258429 39.878799 34.426087 7.798370 -73.846725 49.275063 -30.438895 0.000000 0.000000 0.000000 
0.002708 0.939326 -0.057846 1.216044 6.269829 11.891750 7.655517 -0.866050 -15.130375 -1.661643 -0.112099 9.855646 3.013165 8.280938 5.248261 0.000000 0.000000 0.000000 -5.101567 0.914119 -14.061154 -6.784238 0.912012 1.862489 0.071637 -2.611280 7.803793 0.000000 0.000000 0.000000 5.467576 -0.058077 -2.792819 0.920890 -0.202290 -4.548783 -11.579255 2.650258 1.622194 12.859721 -5.160755 -18.102207 0.000000 0.000000 0.000000 -11.662227 -11.600230 2.626344 -29.408590 -46.774852 7.359487 65.677756 -59.101709 -39.370751 0.000000 0.000000 0.000000 9.227802 -2.648236 -1.117375 40.892157 34.435621 8.052365 -77.135571 51.064333 -33.666126 0.000000 0.000000 0.000000 
